<?xml version="1.0" encoding="utf-8"?>
<!-- Generator: Adobe Illustrator 23.0.6, SVG Export Plug-In . SVG Version: 6.00 Build 0)  -->
<svg version="1.1" id="Layer_1" xmlns="http://www.w3.org/2000/svg" xmlns:xlink="http://www.w3.org/1999/xlink" x="0px" y="0px"
	 viewBox="0 0 276 276" style="enable-background:new 0 0 276 276;" xml:space="preserve">
<style type="text/css">
	.st0{fill:#FFFFFF;}
	.st1{fill:none;stroke:#CA5F69;stroke-width:8;}
	.st2{fill:#CA5F69;}
	.st3{fill:none;stroke:#707070;}
	.st4{fill:none;}
	.st5{fill:none;stroke:#364C5A;stroke-width:7;}
</style>
<g id="Ellipse_1" transform="translate(822 -72)">
	<circle class="st0" cx="-684" cy="210" r="138"/>
	<circle class="st1" cx="-684" cy="210" r="134"/>
</g>
<g id="Group_1" transform="translate(0 -12)">
	<g id="Rectangle_3" transform="translate(911 66)">
		<path class="st2" d="M-819,50.5h92c1.7,0,3,1.3,3,3v92c0,1.7-1.3,3-3,3h-92c-1.7,0-3-1.3-3-3v-92C-822,51.8-820.7,50.5-819,50.5z"
			/>
		<path class="st3" d="M-819,51h92c1.4,0,2.5,1.1,2.5,2.5v92c0,1.4-1.1,2.5-2.5,2.5h-92c-1.4,0-2.5-1.1-2.5-2.5v-92
			C-821.5,52.1-820.4,51-819,51z"/>
	</g>
	<path id="Polygon_1" class="st2" d="M136.9,86.5c1-0.6,2.2-0.6,3.2,0l73,45.5c1.4,0.9,1.8,2.7,1,4.1c-0.5,0.9-1.5,1.4-2.5,1.4h-146
		c-1.7,0-3-1.3-3-3c0-1,0.5-2,1.4-2.5L136.9,86.5z"/>
	<path id="Rectangle_4" class="st2" d="M163,85.5h15c1.7,0,3,1.3,3,3v25c0,1.7-1.3,3-3,3h-15c-1.7,0-3-1.3-3-3v-25
		C160,86.8,161.3,85.5,163,85.5z"/>
	<rect id="Rectangle_5" x="116" y="159.5" class="st0" width="29" height="60.6"/>
</g>
<g id="Ellipse_2" transform="translate(837 -57)">
	<circle class="st4" cx="-699" cy="195" r="123"/>
	<circle class="st5" cx="-699" cy="195" r="119.5"/>
</g>
</svg>
