<svg xmlns="http://www.w3.org/2000/svg" width="276" height="276" viewBox="0 0 276 276">
  <g id="Group_7" data-name="Group 7" transform="translate(-822 72)">
    <g id="Ellipse_1" data-name="Ellipse 1" transform="translate(822 -72)" fill="#fff" stroke="#ca5f69" stroke-width="8">
      <circle cx="138" cy="138" r="138" stroke="none"/>
      <circle cx="138" cy="138" r="134" fill="none"/>
    </g>
    <g id="Group_1" data-name="Group 1" transform="translate(0 -12)">
      <g id="Rectangle_3" data-name="Rectangle 3" transform="translate(911 66)" fill="#ca5f69" stroke="#707070" stroke-width="1">
        <rect width="98" height="98" rx="3" stroke="none"/>
        <rect x="0.5" y="0.5" width="97" height="97" rx="2.5" fill="none"/>
      </g>
      <path id="Polygon_1" data-name="Polygon 1" d="M81.914.988a3,3,0,0,1,3.172,0l73.008,45.466A3,3,0,0,1,156.508,52H10.492a3,3,0,0,1-1.586-5.547Z" transform="translate(877 35)" fill="#ca5f69"/>
      <rect id="Rectangle_4" data-name="Rectangle 4" width="21" height="31" rx="3" transform="translate(982 35)" fill="#ca5f69"/>
      <rect id="Rectangle_5" data-name="Rectangle 5" width="29" height="55" transform="translate(938 109)" fill="#fff"/>
    </g>
    <g id="Ellipse_2" data-name="Ellipse 2" transform="translate(837 -57)" fill="none" stroke="#364c5a" stroke-width="7">
      <circle cx="123" cy="123" r="123" stroke="none"/>
      <circle cx="123" cy="123" r="119.5" fill="none"/>
    </g>
  </g>
</svg>
