<svg xmlns="http://www.w3.org/2000/svg" width="51.008" height="51.008" viewBox="0 0 51.008 51.008">
  <path id="Path_4" data-name="Path 4" d="M25.8.3a25.5,25.5,0,1,0,25.5,25.5h0A25.564,25.564,0,0,0,25.8.3ZM38.766,20.7A17.172,17.172,0,0,1,21.358,38.766,17.91,17.91,0,0,1,12,36.005a12.276,12.276,0,0,0,9.125-2.527,6.268,6.268,0,0,1-5.756-4.258,5.518,5.518,0,0,0,2.761,0,5.754,5.754,0,0,1-4.914-5.943,9.894,9.894,0,0,0,2.761.842,6.135,6.135,0,0,1-1.919-8.1A17.162,17.162,0,0,0,26.6,22.388a6.146,6.146,0,0,1,4.539-7.253,7.71,7.71,0,0,1,1.5-.187,5.749,5.749,0,0,1,4.446,1.919,10.431,10.431,0,0,0,3.837-1.5,6.227,6.227,0,0,1-2.761,3.416,9.1,9.1,0,0,0,3.416-1.076A12.273,12.273,0,0,1,38.766,20.7Z" transform="translate(-0.3 -0.3)" fill="#304d5f"/>
</svg>
